# xmcd CD database file
# Copyright (C) 1995-1998 Ti Kan
#
# Track frame offsets:
#	150
#	11651
#	29001
#	51533
#	90954
#	118427
#	129569
#	140014
#	153983
#	169028
#	176397
#	193863
#	214561
#	233935
#	249124
#	258449
#	272161
#	289061
#	294150
#	310957
#
# Disc length: 4300 seconds
#
# Revision: 1
# Processed by: cddbd v1.4PL0 Copyright (c) Steve Scherf et al.
# Submitted via: CDex 1.30Release
#
DISCID=2710ca14
DTITLE=Pappo´s Blues - Con el Blues en la sangre - 40 Obras Fundamentales - 
DTITLE=CD1
DYEAR=2000
DGENRE=Blues
TTITLE0=Fiesta cervezal
TTITLE1=Vamos a buscar la luz
TTITLE2=Gato de la calle negra
TTITLE3=Adonde esta la libertad
TTITLE4=Siempre es lo mismo, nena
TTITLE5=El sur de la ciudad
TTITLE6=Pajaro metalico
TTITLE7=Con Elvira es otra cosa
TTITLE8=Solitario Juan
TTITLE9=Stratocaster Boogie
TTITLE10=Insoluble
TTITLE11=Blues de Santa Fe
TTITLE12=Mirese adentro
TTITLE13=Abelardo, el pollo
TTITLE14=Tema solisimo
TTITLE15=Sandwiches de miga
TTITLE16=Hansen
TTITLE17=Trabajando en el ferrocarril
TTITLE18=Sofisticuatro
TTITLE19=Tren de las 16
EXTD=YEAR: 2000 ID3G:   0
EXTT0=
EXTT1=
EXTT2=
EXTT3=
EXTT4=
EXTT5=
EXTT6=
EXTT7=
EXTT8=
EXTT9=
EXTT10=
EXTT11=
EXTT12=
EXTT13=
EXTT14=
EXTT15=
EXTT16=
EXTT17=
EXTT18=
EXTT19=
PLAYORDER=
